<?xml version="1.0"?>
<svg xmlns="http://www.w3.org/2000/svg" xmlns:xlink="http://www.w3.org/1999/xlink" version="1.1" viewBox="0 0 172 172" width="64px" height="64px"><g fill="none" fill-rule="nonzero" stroke="none" stroke-width="none" stroke-linecap="none" stroke-linejoin="none" stroke-miterlimit="10" stroke-dasharray="" stroke-dashoffset="0" font-family="none" font-weight="none" font-size="none" text-anchor="none" style="mix-blend-mode: normal"><path d="M0,172v-172h172v172z" fill="none" stroke="none" stroke-width="1" stroke-linecap="butt" stroke-linejoin="miter"/><g id="&#xD0;&#xA1;&#xD0;&#xBB;&#xD0;&#xBE;&#xD0;&#xB9;_1"><path d="M111.39688,20.02188c-1.6125,0.26875 -3.09063,0.94062 -4.43438,1.74687c1.34375,-0.80625 2.95625,-1.47813 4.43438,-1.74687z" fill="#3498db" stroke="none" stroke-width="1" stroke-linecap="butt" stroke-linejoin="miter"/><path d="M22.97813,151.97813l48.375,-10.75c2.28437,-0.5375 4.43437,-1.74688 6.04688,-3.35937l71.08437,-71.08438c4.8375,-4.8375 4.8375,-12.63125 0,-17.46875l-26.06875,-25.93437c-4.8375,-4.8375 -12.63125,-4.8375 -17.46875,0l-71.08437,71.08438c-1.6125,1.6125 -2.82187,3.7625 -3.35937,6.04688l-10.48125,48.50937c-0.67187,1.74688 1.20938,3.62813 2.95625,2.95625" fill="#e5edf6" stroke="none" stroke-width="1" stroke-linecap="butt" stroke-linejoin="miter"/><path d="M139.88438,75.65313l8.73438,-8.73437c4.8375,-4.8375 4.8375,-12.63125 0,-17.46875l-26.06875,-26.20312c-4.8375,-4.8375 -12.63125,-4.8375 -17.46875,0l-8.73437,8.73438l43.5375,43.67188" fill="#e5edf6" stroke="none" stroke-width="1" stroke-linecap="butt" stroke-linejoin="miter"/><path d="M55.9,116.1l-21.76875,-21.76875l62.21563,-62.21562l43.5375,43.5375l-62.21562,62.21563l-21.76875,-21.76875" fill="#b0e6fa" stroke="none" stroke-width="1" stroke-linecap="butt" stroke-linejoin="miter"/><path d="M55.9,116.1l62.21563,-62.21563l21.76875,21.76875l-62.21562,62.21563l-21.76875,-21.76875" fill="#adf0f6" stroke="none" stroke-width="1" stroke-linecap="butt" stroke-linejoin="miter"/><path d="M68.93438,129.26875v0c-1.74688,1.74687 -3.7625,3.09062 -6.31563,3.49375l-35.20625,11.825l-7.39062,4.3v0.26875c-0.5375,1.47813 0.67188,3.09062 2.15,3.09062c0,0 0,0 0.13438,0c0.26875,0 0.40312,0 0.67188,-0.13437v0l48.375,-10.75c2.28438,-0.5375 4.43438,-1.74688 6.04688,-3.35937l0.13438,-0.13438l-8.6,-8.6M131.28438,66.91875v0l8.46562,8.6v0l-8.46562,-8.6" fill="#d1eaf8" stroke="none" stroke-width="1" stroke-linecap="butt" stroke-linejoin="miter"/><path d="M139.88438,40.85c4.8375,4.8375 4.8375,12.63125 0,17.46875l-8.6,8.6l8.46562,8.6l0.13438,0.13438l8.73438,-8.73437c2.41875,-2.41875 3.62813,-5.50938 3.62813,-8.6c0,-3.09063 -1.20938,-6.31563 -3.62813,-8.73437l-8.73437,-8.73437" fill="#d1eaf8" stroke="none" stroke-width="1" stroke-linecap="butt" stroke-linejoin="miter"/><path d="M131.15,66.91875l-62.21562,62.35l8.73438,8.6l62.21563,-62.21562l-0.13438,-0.13438l-8.6,-8.6" fill="#bdc3f5" stroke="none" stroke-width="1" stroke-linecap="butt" stroke-linejoin="miter"/><path d="M20.02188,149.02188l3.7625,-20.69375l20.15625,20.15625l-20.9625,3.62813c-1.74688,0.5375 -3.62813,-1.34375 -2.95625,-3.09063z" fill="#4a72c3" stroke="none" stroke-width="1" stroke-linecap="butt" stroke-linejoin="miter"/><path d="M150.23125,65.0375c0.94063,-1.34375 1.47813,-2.82187 1.88125,-4.43437c-0.40313,1.47813 -0.94063,3.09063 -1.88125,4.43437z" fill="#3498db" stroke="none" stroke-width="1" stroke-linecap="butt" stroke-linejoin="miter"/><path d="M96.34688,32.11563l43.5375,43.5375" fill="none" stroke="none" stroke-width="1" stroke-linecap="butt" stroke-linejoin="miter"/><path d="M118.11563,53.88438" fill="none" stroke="#aec3e3" stroke-width="8.0625" stroke-linecap="round" stroke-linejoin="round"/><path d="M118.11563,53.88438" fill="none" stroke="#aec3e3" stroke-width="8.0625" stroke-linecap="round" stroke-linejoin="round"/><path d="M17.7375,154.2625c-1.74688,-1.74687 -2.28438,-4.16562 -1.6125,-6.31562l10.61562,-48.24063c0.80625,-3.09062 2.15,-5.77812 4.43438,-7.92813l70.95,-71.21875c6.31562,-6.31563 16.6625,-6.45 23.1125,-0.13438l26.06875,26.06875c6.31562,6.31563 6.31562,16.79688 0,23.24687l-71.08438,71.08438c-2.15,2.15 -4.97188,3.7625 -7.92812,4.43437l-48.24063,10.61563c-2.15,0.67188 -4.56875,0.13438 -6.31562,-1.6125zM119.59375,26.20313c-3.225,-3.225 -8.6,-3.225 -11.825,0l-71.08437,71.08438c-1.075,1.075 -1.88125,2.41875 -2.15,4.03125l-10.2125,46.225l46.225,-10.2125c1.47813,-0.40312 2.95625,-1.075 4.03125,-2.15l71.08437,-71.08438c3.225,-3.225 3.225,-8.6 0,-11.825z" fill="#aec3e3" stroke="none" stroke-width="1" stroke-linecap="butt" stroke-linejoin="miter"/></g></g></svg>
